<svg width="36" height="58" viewBox="0 0 36 58" fill="none" xmlns="http://www.w3.org/2000/svg">
<path fill-rule="evenodd" clip-rule="evenodd" d="M34 28.5463C34 16.774 18.999 3.14893 18.999 3.14893C18.999 3.14893 4 16.774 4 28.5463C4 39.6901 12.1721 45.1756 18.031 45.7291V53.9303C18.0228 54.432 18.4514 54.8433 18.9846 54.8509C19.5199 54.8586 19.9587 54.4569 19.9669 53.9572C19.9669 53.9476 19.9669 53.9399 19.9669 53.9322V45.731C25.8279 45.1775 34 39.6921 34 28.5463Z" fill="#88B091" stroke="#3D3D3D" stroke-width="3.234" stroke-miterlimit="10"/>
<path fill-rule="evenodd" clip-rule="evenodd" d="M26.7212 31.6845C26.3377 31.3265 25.7064 31.3151 25.308 31.6579C25.2974 31.6655 25.289 31.675 25.2784 31.6845L19.5725 36.8106V31.6731C19.6149 31.6464 19.6636 31.6312 19.7018 31.5969L26.1937 25.7663C26.592 25.4216 26.6047 24.8542 26.2233 24.4962C25.8398 24.1382 25.2084 24.1267 24.8101 24.4695C24.7995 24.4771 24.791 24.4866 24.7805 24.4962L19.5746 29.1729V24.0372C19.617 24.0106 19.6658 23.9954 19.7039 23.9611L25.1957 19.0292C25.5941 18.6845 25.6068 18.1171 25.2254 17.7591C24.8419 17.4011 24.2105 17.3897 23.8122 17.7324C23.8016 17.7401 23.7931 17.7496 23.7825 17.7591L19.5768 21.537V12.096C19.581 11.6047 19.3267 11.1991 19.0068 11.1915C19.0005 11.1915 18.9941 11.1915 18.9877 11.1915C18.6678 11.1991 18.4136 11.6047 18.4178 12.096V21.5313L14.2142 17.7534C14.0256 17.5782 13.7671 17.4792 13.4959 17.4792C12.9429 17.4792 12.4958 17.881 12.4958 18.378C12.4958 18.6217 12.606 18.854 12.801 19.0235L18.2886 23.9554C18.3267 23.9896 18.3754 24.0049 18.4178 24.0315V29.1672L13.2162 24.4924C13.0277 24.3172 12.7692 24.2182 12.498 24.2182C11.945 24.2182 11.4979 24.6199 11.4979 25.1169C11.4979 25.3607 11.6081 25.593 11.803 25.7625L18.2907 31.5931C18.3288 31.6274 18.3775 31.6426 18.4199 31.6693V36.8049L12.7183 31.6807C12.5297 31.5055 12.2713 31.4065 12.0001 31.4065C11.4471 31.4065 11 31.8083 11 32.3053C11 32.549 11.1102 32.7813 11.3051 32.9508L18.2928 39.2309C18.3309 39.2651 18.3797 39.2804 18.422 39.307V53.9465C18.4178 54.4378 18.6721 54.8434 18.992 54.851C19.3119 54.8586 19.5746 54.4644 19.5789 53.9732C19.5789 53.9655 19.5789 53.956 19.5789 53.9484V39.3089C19.6213 39.2823 19.67 39.267 19.7081 39.2328L26.7001 32.9527C27.0899 32.6119 27.1026 32.0425 26.7212 31.6845Z" fill="#719177"/>
</svg>
